<svg xmlns="http://www.w3.org/2000/svg" version="1.1" xmlns:xlink="http://www.w3.org/1999/xlink" width="794" height="722"><svg version="1.1" xmlns="http://www.w3.org/2000/svg" width="794" height="722">
<path d="M0 0 C262.02 0 524.04 0 794 0 C794 238.26 794 476.52 794 722 C531.98 722 269.96 722 0 722 C0 483.74 0 245.48 0 0 Z " fill="#FEFEFE" transform="translate(0,0)"></path>
<path d="M0 0 C2.43291227 1.02517065 4.60718622 1.82150394 7.1796875 2.33984375 C7.1796875 2.99984375 7.1796875 3.65984375 7.1796875 4.33984375 C8.05753906 4.6028125 8.93539063 4.86578125 9.83984375 5.13671875 C24.70488236 10.49160985 39.23882836 24.96576519 47.1796875 38.33984375 C47.79328125 39.32984375 48.406875 40.31984375 49.0390625 41.33984375 C52.39093723 46.88013256 55.09922783 52.21404584 57.1796875 58.33984375 C57.5096875 58.66984375 57.8396875 58.99984375 58.1796875 59.33984375 C60.25641599 67.09629956 61.50783002 75.03650894 62.63671875 82.9765625 C62.76628464 83.88764267 62.89585052 84.79872284 63.02934265 85.7374115 C64.31088107 94.95984157 65.28033363 104.20642113 66.20056152 113.47079468 C68.31453762 134.72138671 70.70268356 155.93561204 73.2121582 177.14282227 C73.79138728 182.04627284 74.35179727 186.95150412 74.8972168 191.85882568 C75.15200984 194.09674323 75.42977391 196.33047731 75.71289062 198.56494141 C75.84115234 199.72429199 75.96941406 200.88364258 76.1015625 202.078125 C76.2159668 203.02341064 76.33037109 203.96869629 76.44824219 204.94262695 C76.1796875 207.33984375 76.1796875 207.33984375 74.34472656 209.67260742 C72.1796875 211.33984375 72.1796875 211.33984375 69.6171875 211.27734375 C66.97941242 210.26281487 65.93398217 209.52263246 64.1796875 207.33984375 C63.59748745 205.12010479 63.59748745 205.12010479 63.30088806 202.47966003 C63.18185623 201.47765564 63.0628244 200.47565125 62.94018555 199.44328308 C62.82320312 198.34462418 62.7062207 197.24596527 62.58569336 196.11401367 C62.38503014 194.37681564 62.38503014 194.37681564 62.18031311 192.60452271 C61.73941355 188.76107562 61.31703702 184.91582142 60.89453125 181.0703125 C60.59242099 178.39498015 60.28625063 175.72011695 59.9801178 173.04524231 C59.25686917 166.70599015 58.54664498 160.36535164 57.84135777 154.02407867 C56.81106364 144.76598008 55.76103415 135.51011698 54.71141148 126.25419331 C54.55544687 124.87855444 54.39949149 123.50291454 54.24354553 122.12727356 C54.16723941 121.45433284 54.09093329 120.78139211 54.01231486 120.08805925 C53.4916235 115.49167799 52.9767102 110.89467223 52.46385193 106.29740906 C51.13879504 81.34107681 51.13879504 81.34107681 43.1796875 58.33984375 C42.60377386 56.80313759 42.04306605 55.26070118 41.4921875 53.71484375 C39.07292878 47.49521693 35.29207514 42.54458435 31.1796875 37.33984375 C30.6846875 36.69015625 30.1896875 36.04046875 29.6796875 35.37109375 C24.45255058 28.8371726 17.68648627 23.76415507 10.5546875 19.46484375 C9.4409375 18.76359375 8.3271875 18.06234375 7.1796875 17.33984375 C7.1796875 16.67984375 7.1796875 16.01984375 7.1796875 15.33984375 C6.18388672 15.04980469 6.18388672 15.04980469 5.16796875 14.75390625 C-3.60238631 12.16761176 -3.60238631 12.16761176 -7.8203125 10.33984375 C-7.8203125 9.67984375 -7.8203125 9.01984375 -7.8203125 8.33984375 C-8.71234375 8.20707031 -9.604375 8.07429688 -10.5234375 7.9375 C-12.27914062 7.67259766 -12.27914062 7.67259766 -14.0703125 7.40234375 C-15.23046875 7.22832031 -16.390625 7.05429687 -17.5859375 6.875 C-20.8203125 6.33984375 -20.8203125 6.33984375 -22.70336914 5.81469727 C-25.16394577 5.26276305 -27.40416821 5.21024379 -29.92578125 5.20703125 C-30.90998047 5.20574219 -31.89417969 5.20445313 -32.90820312 5.203125 C-33.93107422 5.20699219 -34.95394531 5.21085937 -36.0078125 5.21484375 C-37.51311523 5.20904297 -37.51311523 5.20904297 -39.04882812 5.203125 C-47.64954669 5.21431657 -55.06843816 5.3024092 -62.8203125 9.33984375 C-64.16889756 9.61838586 -65.52416677 9.86545761 -66.8828125 10.08984375 C-79.68783539 12.71983162 -91.05726964 21.99259804 -99.8203125 31.33984375 C-98.51530929 35.25485339 -96.12692928 36.38545813 -92.8203125 38.52734375 C-71.31812268 53.02847927 -57.20508364 74.9268231 -51.8203125 100.33984375 C-49.06270681 115.43918118 -49.9204979 131.5749643 -53.8203125 146.33984375 C-54.25433105 148.64914998 -54.66949189 150.96204459 -55.0703125 153.27734375 C-56.6439593 162.01147056 -58.67613378 170.64421937 -60.65692139 179.29284668 C-63.45200779 191.51289791 -65.98802873 203.77272353 -68.35888672 216.08276367 C-68.78897462 218.18655345 -69.28185597 220.26144926 -69.8203125 222.33984375 C-68.90378906 222.46939453 -68.90378906 222.46939453 -67.96875 222.6015625 C-59.81978919 223.85260015 -51.84246138 225.65320688 -43.82763672 227.57495117 C-38.76837231 228.76464978 -33.83551229 229.67613205 -28.65307617 230.10913086 C-26.1893156 230.41927522 -24.11967297 231.42009956 -21.8203125 232.33984375 C-20.42793485 232.51563492 -19.03113979 232.65776602 -17.6328125 232.77734375 C-13.2732417 233.17564341 -9.41240453 234.30727194 -5.2578125 235.64453125 C-1.80056364 236.63073365 1.61118586 236.95055266 5.1796875 237.33984375 C6.1796875 238.33984375 6.1796875 238.33984375 6.303886 240.99038178 C6.30350628 242.18688054 6.30312656 243.3833793 6.30273533 244.6161356 C6.30388917 245.28250867 6.30504302 245.94888175 6.30623183 246.63544795 C6.30890495 248.89627694 6.30437067 251.15703647 6.29994202 253.41786194 C6.30037758 255.04389651 6.3012522 256.66993101 6.30253118 258.29596514 C6.30477913 262.78593474 6.30075078 267.27588073 6.29575312 271.76584733 C6.29145308 276.59954908 6.29289473 281.43324939 6.2936554 286.26695251 C6.29418092 294.64889405 6.2910312 303.03082783 6.28541756 311.41276741 C6.27730634 323.53179327 6.27468773 335.65081535 6.27342957 347.76984363 C6.27123845 367.42997926 6.26457675 387.09011076 6.25512695 406.75024414 C6.24595437 425.85343403 6.23887279 444.9566228 6.23461914 464.05981445 C6.23422506 465.82473475 6.23422506 465.82473475 6.23382301 467.62531001 C6.23251801 473.52776344 6.2312543 479.43021688 6.23001111 485.33267033 C6.21963664 534.33506433 6.20201671 583.33745384 6.1796875 632.33984375 C2.09150697 632.91826553 -1.9978234 633.48751036 -6.08837891 634.04882812 C-7.47543495 634.24041223 -8.86216676 634.43436102 -10.24853516 634.63085938 C-18.12462022 635.74545336 -25.84941369 636.6819628 -33.8203125 636.33984375 C-33.92184746 638.16747296 -34.02331713 639.99510582 -34.12451172 641.82275391 C-34.21490602 643.4448846 -34.3064132 645.06695358 -34.39892578 646.68896484 C-34.62578605 650.69170285 -34.84113227 654.69332359 -35.00390625 658.69921875 C-35.55154774 671.33843655 -37.12420211 683.80809307 -38.8203125 696.33984375 C-46.31862141 695.78410625 -53.48880257 694.47558073 -60.8203125 692.83984375 C-63.28505461 692.30031672 -65.74990582 691.76128793 -68.21484375 691.22265625 C-68.878293 691.07688141 -69.54174225 690.93110657 -70.22529602 690.78091431 C-75.94362998 689.52549237 -81.66824911 688.3006326 -87.39453125 687.08203125 C-89.24934976 686.68685272 -91.10416746 686.29167041 -92.95898438 685.89648438 C-95.70063718 685.31246508 -98.44235228 684.72875024 -101.18432617 684.14624023 C-110.85145794 682.09095248 -120.49365998 679.96849841 -130.10726929 677.675354 C-135.26050993 676.4530124 -140.42044669 675.39632057 -145.6328125 674.46484375 C-157.98716818 672.17204724 -170.25716029 669.50857263 -182.53417969 666.8371582 C-185.01355621 666.29780643 -187.49309217 665.759192 -189.97265625 665.22070312 C-198.74668065 663.31514349 -207.52034798 661.4079456 -216.29370117 659.4992981 C-246.45199597 652.93835111 -276.62590198 646.45630603 -306.81561279 640.04136658 C-314.4639424 638.41603199 -322.11173793 636.78826114 -329.7578125 635.15234375 C-330.82829834 634.92345459 -331.89878418 634.69456543 -333.00170898 634.45874023 C-338.9080004 633.19185621 -344.80927766 631.90367377 -350.70703125 630.59765625 C-353.45299964 629.99031694 -356.1990993 629.38357515 -358.9453125 628.77734375 C-359.61977417 628.62836639 -360.29423584 628.47938904 -360.98913574 628.32589722 C-371.20665319 626.07420221 -381.45336645 624.03392013 -391.73803711 622.11083984 C-399.05963619 620.72507332 -406.27844668 619.0740709 -413.50976562 617.2824707 C-421.2925815 615.39028459 -429.13877866 613.88735457 -437.0078125 612.40234375 C-453.73588446 609.24281903 -470.31499854 605.5104356 -486.8203125 601.33984375 C-486.19302865 594.5456751 -484.01604647 588.38451548 -481.84602356 581.94268799 C-481.43035761 580.69297801 -481.01469166 579.44326803 -480.58642977 578.15568805 C-479.4353355 574.69541541 -478.27679079 571.23767735 -477.11700261 567.78031063 C-475.86561719 564.04551632 -474.62119532 560.30840232 -473.37593079 556.57156372 C-471.215209 550.09071182 -469.05012741 543.61132985 -466.88212013 537.13291168 C-463.73197497 527.71955567 -460.58882524 518.30387538 -457.4473873 508.88761052 C-452.32960106 493.54789509 -447.2066841 478.2098984 -442.08032227 462.87304688 C-437.13664127 448.0826818 -432.19450648 433.2918022 -427.25512695 418.5 C-426.95265778 417.59420878 -426.65018861 416.68841756 -426.3385537 415.75517812 C-423.01795214 405.81094881 -419.69786072 395.86654925 -416.37819195 385.92200851 C-416.08398242 385.04066777 -415.7897729 384.15932702 -415.48664793 383.25127898 C-413.71905781 377.95623576 -413.71905781 377.95623576 -411.95152279 372.66117415 C-408.53596968 362.42898396 -405.11887367 352.19731209 -401.69906785 341.96654243 C-390.95889058 309.8358218 -380.22639094 277.70506129 -369.80835801 245.46801245 C-366.26165559 234.50490424 -362.60329531 223.57872764 -358.9453125 212.65234375 C-358.25765996 210.59445201 -357.57016117 208.53650888 -356.8828125 206.47851562 C-355.53881877 202.45499546 -354.19403955 198.43173928 -352.84863281 194.40869141 C-349.49840868 184.38822898 -346.15983341 174.36387724 -342.8203125 164.33984375 C-337.19411476 165.07813383 -331.66686508 166.12511661 -326.109375 167.265625 C-325.18297211 167.45448776 -324.25656921 167.64335052 -323.30209351 167.8379364 C-321.34359961 168.23784739 -319.38532091 168.63881356 -317.42724609 169.04077148 C-314.48993658 169.64319168 -311.55167307 170.24077502 -308.61328125 170.83789062 C-298.50605271 172.90139905 -288.43831319 175.07205104 -278.40771484 177.48120117 C-274.22175849 178.48310729 -270.02544779 179.42235969 -265.8203125 180.33984375 C-265.624375 179.2415625 -265.4284375 178.14328125 -265.2265625 177.01171875 C-262.42934678 161.70302604 -259.03484401 146.53644056 -255.625 131.35546875 C-255.46362045 130.63618698 -255.30224091 129.91690521 -255.13597107 129.17582703 C-254.48670769 126.28580419 -253.83360325 123.39696684 -253.16235352 120.51196289 C-252.14390541 116.10397035 -251.46935161 111.77608214 -251.0078125 107.27734375 C-247.71619551 82.10024279 -234.59197468 58.31731896 -214.9453125 42.15234375 C-195.24708516 27.04428975 -175.73233694 20.19145405 -151.0871582 19.93481445 C-149.54656413 19.91333882 -148.00608858 19.87936039 -146.46606445 19.83227539 C-136.1164816 19.52040056 -128.29329072 20.6378329 -118.86157227 25.04272461 C-115.75814578 26.6013868 -115.75814578 26.6013868 -111.8203125 26.33984375 C-110.25998764 24.92839938 -110.25998764 24.92839938 -108.8828125 22.96484375 C-105.69587041 19.08808735 -102.23362408 16.10481072 -98.2578125 13.08984375 C-97.71584229 12.67814941 -97.17387207 12.26645508 -96.61547852 11.84228516 C-91.58225106 8.07708637 -86.74522762 4.47070175 -80.8203125 2.27734375 C-78.04743835 1.22258033 -75.50784001 0.17363498 -72.8828125 -1.22265625 C-51.75729556 -11.13871522 -20.88842815 -9.10346051 0 0 Z " fill="#D8847F" transform="translate(503.8203125,15.66015625)"></path>
<path d="M0 0 C0 0.66 0 1.32 0 2 C0.74765625 2.19335938 1.4953125 2.38671875 2.265625 2.5859375 C3.25046875 2.84632812 4.2353125 3.10671875 5.25 3.375 C6.71179688 3.75785156 6.71179688 3.75785156 8.203125 4.1484375 C10.65837303 4.89598509 12.75617405 5.77123817 15 7 C15 7.66 15 8.32 15 9 C15.73476563 9.26296875 16.46953125 9.5259375 17.2265625 9.796875 C21.73173206 11.75123025 25.21982082 14.91187435 29 18 C29.61230469 18.47566406 30.22460938 18.95132813 30.85546875 19.44140625 C43.92694985 29.94046773 51.66818056 45.11666207 56 61 C56.48714478 62.54385376 56.48714478 62.54385376 56.98413086 64.11889648 C58.2425071 68.53499317 58.7109035 72.97881732 59.19140625 77.53515625 C59.29728058 78.49063858 59.40315491 79.44612091 59.51223755 80.43055725 C59.74435351 82.53002665 59.97383282 84.62978882 60.20101929 86.72979736 C60.5690857 90.12321743 60.9460119 93.51554725 61.32543945 96.90771484 C61.89619809 102.01486338 62.46477976 107.12224643 63.03027344 112.22998047 C63.10690751 112.92212772 63.18354158 113.61427498 63.2624979 114.32739639 C63.69021149 118.19300927 64.11671797 122.058753 64.54211426 125.92462158 C65.61393147 135.66267068 66.69376217 145.39974105 67.79124737 155.13493443 C68.39010658 160.4521049 68.97709812 165.77041599 69.55572891 171.08982372 C69.92274816 174.43789145 70.30081462 177.78464388 70.68194199 181.13113213 C70.8588293 182.70405074 71.03116318 184.2774887 71.19873428 185.85142708 C71.42988543 188.01595919 71.67714233 190.17806322 71.9284668 192.34033203 C72.06359177 193.55947296 72.19871674 194.77861389 72.3379364 196.03469849 C73.01755193 199.07861292 73.40121597 200.30557075 76 202 C79.14921909 201.76716851 79.14921909 201.76716851 82 201 C83.32477225 195.43618574 82.68432907 190.51805134 81.96875 184.9296875 C81.85398315 183.9710379 81.73921631 183.01238831 81.62097168 182.02468872 C81.2552965 178.97376114 80.87881865 175.92432162 80.5 172.875 C80.12160341 169.81849793 79.74578822 166.76180936 79.37902832 163.70388794 C79.15116533 161.8043432 78.91662662 159.90558462 78.67468262 158.00778198 C78.57127563 157.14653717 78.46786865 156.28529236 78.36132812 155.39794922 C78.26726685 154.64327362 78.17320557 153.88859802 78.07629395 153.11105347 C77.99556904 150.87739539 78.35470488 149.13022003 79 147 C80.4783226 149.95664519 80.06032783 152.74229737 80 156 C80.71800781 155.87882813 81.43601562 155.75765625 82.17578125 155.6328125 C88.77459986 154.56451061 95.34979819 153.72214934 102 153.0625 C108.76361634 152.39142562 115.4679024 151.51883302 122.1875 150.5 C133.74220771 148.76159395 145.35072651 147.84719224 157 147 C162.09374017 168.51531971 167.09370357 190.05008705 172 211.60888672 C173.49541052 218.17814187 174.99798342 224.74575989 176.5 231.31350708 C177.33362514 234.95893802 178.16678929 238.60447432 179 242.25 C179.33333112 243.70833384 179.66666446 245.16666717 180 246.625 C182.00000003 255.37500013 182.00000003 255.37500013 182.49995422 257.56230164 C182.83343904 259.02129644 183.16692496 260.48029098 183.50041199 261.93928528 C184.33143667 265.5749961 185.16244243 269.21071126 185.9934082 272.84643555 C187.5209315 279.52971919 189.04861167 286.21296681 190.57698059 292.89605713 C191.102237 295.19289945 191.62741933 297.48975869 192.15258789 299.78662109 C192.83772127 302.78309778 193.52314527 305.7795078 194.20874023 308.77587891 C195.60287237 314.87093187 196.99545896 320.96626093 198.3671875 327.06640625 C200.33009563 335.78834776 202.35567421 344.48868792 204.48339844 353.17211914 C207.82188785 366.80306539 210.86921222 380.46603395 213.69091797 394.2121582 C213.83086685 394.88785858 213.97081573 395.56355896 214.11500549 396.25973511 C214.49351769 398.08911792 214.86764851 399.91940573 215.24145508 401.74975586 C215.98102263 404.91868501 216.95834674 407.91971254 218 411 C218.35411456 412.51752088 218.67782058 414.04259072 218.96484375 415.57421875 C219.12355957 416.40123291 219.28227539 417.22824707 219.44580078 418.08032227 C219.60806152 418.94069092 219.77032227 419.80105957 219.9375 420.6875 C221.17129217 427.06439686 222.54033705 433.31601556 224.34765625 439.55859375 C225.30312345 443.13444407 225.91156025 446.75372175 226.54296875 450.3984375 C227.66888247 456.80748484 229.27690663 463.03916375 231 469.3125 C232.55372046 474.97207589 233.7095193 480.59792631 234.5078125 486.4140625 C234.9080853 489.00144558 234.9080853 489.00144558 235.95703125 491.2890625 C237.39518485 495.02718459 237.9340264 498.80624502 238.5625 502.75 C238.9575312 507.77938451 238.9575312 507.77938451 241 512 C241.49479711 514.47696628 241.94733709 516.9488718 242.375 519.4375 C243.37212856 525.0402946 244.61435954 530.38912233 246.375 535.80859375 C247.33337662 539.16890178 247.62166597 542.53193806 248 546 C248.33 546.33 248.66 546.66 249 547 C249.22519687 548.93025889 249.44748252 550.86129442 249.62109375 552.796875 C249.92383163 555.05490508 249.92383163 555.05490508 250.94140625 557.234375 C252.61412072 561.6044187 253.13141599 566.15483363 253.85546875 570.76171875 C254.51667588 574.77872982 255.4115309 578.22985756 257 582 C257.37890625 584.203125 257.37890625 584.203125 257.5625 586.25 C257.58237411 589.78917514 257.58237411 589.78917514 259 591 C259.125 593.5 259.125 593.5 259 596 C257.06492018 597.93507982 253.58517756 597.64150693 250.9375 597.9375 C249.83716431 598.06499634 249.83716431 598.06499634 248.71459961 598.19506836 C240.77609222 599.08237561 232.81446955 599.70757362 224.84936523 600.30249023 C223.85880127 600.37927002 222.8682373 600.4560498 221.84765625 600.53515625 C220.96086182 600.600979 220.07406738 600.66680176 219.16040039 600.73461914 C216.95457648 600.88320068 216.95457648 600.88320068 215 602 C213.66319245 602.22404281 212.31862322 602.40285388 210.97192383 602.55664062 C209.72340385 602.70184143 209.72340385 602.70184143 208.44966125 602.84997559 C207.54459335 602.95104614 206.63952545 603.0521167 205.70703125 603.15625 C204.29969978 603.31704041 204.29969978 603.31704041 202.86393738 603.4810791 C200.86759207 603.70816409 198.87102733 603.93332684 196.87426758 604.15673828 C193.86931389 604.49363047 190.86530522 604.83811532 187.86132812 605.18359375 C178.17080987 606.28492405 168.51407325 607.27529243 158.7722168 607.77148438 C155.91454785 607.89669371 155.91454785 607.89669371 153 609 C151.65206257 609.18856032 150.29865286 609.33966431 148.94335938 609.46484375 C148.13241821 609.54162354 147.32147705 609.61840332 146.48596191 609.69750977 C145.61403198 609.77670654 144.74210205 609.85590332 143.84375 609.9375 C142.49573303 610.06499634 142.49573303 610.06499634 141.1204834 610.19506836 C137.27367702 610.55879071 133.42611654 610.9142456 129.57861328 611.27050781 C126.77088469 611.53166978 123.96356944 611.79698187 121.15625 612.0625 C120.28432007 612.14169678 119.41239014 612.22089355 118.51403809 612.30249023 C117.70309692 612.37927002 116.89215576 612.4560498 116.05664062 612.53515625 C115.34399048 612.600979 114.63134033 612.66680176 113.89709473 612.73461914 C111.78091372 612.97205729 111.78091372 612.97205729 109 614 C106.71357576 614.26449266 104.42205933 614.48575251 102.12890625 614.68359375 C100.73502304 614.80790906 99.34114294 614.93225921 97.94726562 615.05664062 C95.76908051 615.24660853 93.59077437 615.43506969 91.41235352 615.62231445 C83.48106873 616.30894672 75.65305538 617.15029924 67.80834961 618.54711914 C63.06310643 619.31234787 58.29023258 619.64271409 53.5 620 C47.47397225 620.48171575 41.51329653 620.96050064 35.5625 622.0625 C28.44640309 623.26184218 21.20240388 623.54984976 14 624 C13.67 493.98 13.34 363.96 13 230 C7.72 229.01 2.44 228.02 -3 227 C-3.66 226.67 -4.32 226.34 -5 226 C-6.99488234 225.63729412 -8.99598989 225.30830925 -11 225 C-16.77777778 224.11111111 -16.77777778 224.11111111 -19 223 C-20.73290017 222.67907899 -22.47265274 222.39480806 -24.21484375 222.12890625 C-31.38574934 220.9732069 -38.46547816 219.47674854 -45.5625 217.9375 C-46.81869141 217.66873047 -48.07488281 217.39996094 -49.36914062 217.12304688 C-58.59415369 215.1352821 -58.59415369 215.1352821 -62 214 C-61.25588139 207.3741779 -60.12777708 200.86008939 -58.875 194.3125 C-58.66125732 193.19270752 -58.44751465 192.07291504 -58.22729492 190.91918945 C-56.26889581 180.91304796 -53.91829546 171.01798957 -51.41162109 161.13598633 C-49.73445064 154.44014726 -48.40654054 147.81510475 -47.47973633 140.97290039 C-46.97227034 137.82816081 -46.20849745 134.82293689 -45.375 131.75 C-40.90815452 111.39850501 -43.68181711 89.91142434 -52 71 C-52.66322266 69.48792969 -52.66322266 69.48792969 -53.33984375 67.9453125 C-56.96870056 60.20509161 -61.65970678 53.64928161 -67 47 C-67.52980469 46.29230469 -68.05960937 45.58460937 -68.60546875 44.85546875 C-73.7548521 38.35586148 -80.65358597 33.8801425 -87.37646484 29.14990234 C-89.27871303 27.80259574 -91.14597099 26.41281704 -93 25 C-87.86171596 13.82665593 -74.07131678 6.23226357 -63.09765625 1.69921875 C-60.09395131 0.69798377 -57.06150979 0.03947663 -53.9453125 -0.5078125 C-51.69569906 -0.9618854 -51.69569906 -0.9618854 -49 -3 C-33.05377209 -6.42802373 -15.44177763 -4.6428969 0 0 Z " fill="#ECDFE1" transform="translate(496,24)"></path>
<path d="M0 0 C0 0.66 0 1.32 0 2 C0.74765625 2.19335938 1.4953125 2.38671875 2.265625 2.5859375 C3.25046875 2.84632812 4.2353125 3.10671875 5.25 3.375 C6.71179688 3.75785156 6.71179688 3.75785156 8.203125 4.1484375 C10.65837303 4.89598509 12.75617405 5.77123817 15 7 C15 7.66 15 8.32 15 9 C15.73476563 9.26296875 16.46953125 9.5259375 17.2265625 9.796875 C21.73173206 11.75123025 25.21982082 14.91187435 29 18 C29.61230469 18.47566406 30.22460938 18.95132813 30.85546875 19.44140625 C43.92694985 29.94046773 51.66818056 45.11666207 56 61 C56.3204126 61.99225586 56.6408252 62.98451172 56.97094727 64.00683594 C58.40084201 69.02238558 58.84702368 74.15657351 59.40234375 79.328125 C59.52475937 80.42273544 59.64717499 81.51734589 59.77330017 82.64512634 C60.16718601 86.17946723 60.55258884 89.71467144 60.9375 93.25 C61.20476 95.6697309 61.47250136 98.08940868 61.74072266 100.5090332 C62.26358568 105.23115488 62.78340863 109.95359689 63.30126953 114.67626953 C63.86891133 119.83716336 64.45507437 124.99553609 65.05859375 130.15234375 C65.20111572 131.38243164 65.3436377 132.61251953 65.49047852 133.87988281 C65.73582831 135.99035838 65.98465539 138.1004346 66.23803711 140.20996094 C66.91875153 146.16581846 67.13115414 152.00657987 67 158 C66.43716309 158.0501123 65.87432617 158.10022461 65.29443359 158.15185547 C62.65426849 158.38913136 60.01465019 158.63206516 57.375 158.875 C56.49070312 158.95363281 55.60640625 159.03226563 54.6953125 159.11328125 C49.50110561 159.59560046 44.35228888 160.2178641 39.19140625 160.98046875 C31.99964887 162.03507654 24.79806763 162.75950774 17.5625 163.4375 C7.54554032 164.40626536 -2.43436992 165.5182461 -12.4074707 166.86816406 C-20.1359394 167.90730894 -27.87553053 168.81927001 -35.625 169.6875 C-36.78217529 169.81898438 -37.93935059 169.95046875 -39.1315918 170.0859375 C-40.21480713 170.20582031 -41.29802246 170.32570312 -42.4140625 170.44921875 C-43.3726416 170.55580811 -44.3312207 170.66239746 -45.31884766 170.7722168 C-47.89475784 170.99105892 -50.41634423 171.04135022 -53 171 C-51.19273283 159.46425212 -51.19273283 159.46425212 -50 155.0625 C-48.80817704 150.58161522 -48.22704373 146.03075515 -47.57421875 141.4453125 C-47.02295426 138.13772555 -46.22329107 134.99182596 -45.375 131.75 C-40.90815452 111.39850501 -43.68181711 89.91142434 -52 71 C-52.66322266 69.48792969 -52.66322266 69.48792969 -53.33984375 67.9453125 C-56.96870056 60.20509161 -61.65970678 53.64928161 -67 47 C-67.52980469 46.29230469 -68.05960937 45.58460937 -68.60546875 44.85546875 C-73.7548521 38.35586148 -80.65358597 33.8801425 -87.37646484 29.14990234 C-89.27871303 27.80259574 -91.14597099 26.41281704 -93 25 C-87.86171596 13.82665593 -74.07131678 6.23226357 -63.09765625 1.69921875 C-60.09395131 0.69798377 -57.06150979 0.03947663 -53.9453125 -0.5078125 C-51.69569906 -0.9618854 -51.69569906 -0.9618854 -49 -3 C-33.05377209 -6.42802373 -15.44177763 -4.6428969 0 0 Z " fill="#FEFDFE" transform="translate(496,24)"></path>
<path d="M0 0 C1.73830078 -0.00483398 1.73830078 -0.00483398 3.51171875 -0.00976562 C13.55253867 0.05263495 22.21323417 1.52900281 31.5 5.3125 C30.89036283 8.07831959 30.06194135 10.41097062 28.7578125 12.921875 C28.24154297 13.93121094 28.24154297 13.93121094 27.71484375 14.9609375 C26.99632262 16.34647288 26.27757778 17.73189227 25.55859375 19.1171875 C12.00868268 45.61255263 15.91239709 74.74689849 19.5 103.3125 C19.73263338 105.27057737 19.96319114 107.22890276 20.19140625 109.1875 C21.23561296 118.09706227 22.33271042 126.99975617 23.45568848 135.89970398 C23.92056771 139.59203649 24.38065243 143.28496036 24.84039307 146.97793579 C25.0694803 148.80747143 25.30083794 150.6367244 25.53460693 152.46566772 C27.83761741 170.48882341 27.83761741 170.48882341 27.5 179.3125 C18.63470356 178.14127014 9.91726725 176.68257933 1.1875 174.75 C0.01292236 174.49460449 -1.16165527 174.23920898 -2.37182617 173.97607422 C-8.77947034 172.57966779 -15.18240453 171.16198336 -21.58586121 169.746521 C-24.96118122 169.00062287 -28.33668611 168.25556544 -31.71231079 167.51104736 C-33.44591636 167.12865023 -35.17945726 166.74595974 -36.91293335 166.36297607 C-51.94454285 163.04518285 -67.00856383 159.9050229 -82.10083008 156.87548828 C-82.88318527 156.71746231 -83.66554047 156.55943634 -84.47160339 156.3966217 C-85.91642834 156.1049505 -87.36171382 155.81554587 -88.80757141 155.52903748 C-93.11595621 154.65800862 -97.29177028 153.56651564 -101.5 152.3125 C-100.92161514 145.60323557 -99.64752798 139.21863035 -98.18359375 132.6484375 C-97.64886977 130.03898446 -97.2703117 127.58329777 -97.0625 124.9375 C-96.6209104 120.20123506 -95.41476928 115.70394312 -94.22949219 111.10571289 C-92.670642 105.04808798 -91.21700561 98.97024679 -89.8125 92.875 C-89.59819336 91.96403564 -89.38388672 91.05307129 -89.16308594 90.11450195 C-88.17848637 85.81610457 -87.3644985 81.60470809 -86.91796875 77.21484375 C-86.5 73.3125 -86.5 73.3125 -85.5 72.3125 C-85.22384942 70.71262764 -84.97992375 69.107167 -84.75 67.5 C-80.88333576 45.78503778 -65.22635443 26.72016132 -47.54296875 14.22265625 C-39.89931417 9.25936422 -32.18659707 5.99331458 -23.5 3.3125 C-22.78183105 3.05138428 -22.06366211 2.79026855 -21.32373047 2.52124023 C-14.17777418 0.06794511 -7.50876002 -0.10440434 0 0 Z " fill="#FDFDFD" transform="translate(351.5,46.6875)"></path>
<path d="M0 0 C2.43291227 1.02517065 4.60718622 1.82150394 7.1796875 2.33984375 C7.1796875 2.99984375 7.1796875 3.65984375 7.1796875 4.33984375 C8.05753906 4.6028125 8.93539063 4.86578125 9.83984375 5.13671875 C24.70488236 10.49160985 39.23882836 24.96576519 47.1796875 38.33984375 C48.10007812 39.82484375 48.10007812 39.82484375 49.0390625 41.33984375 C52.39093723 46.88013256 55.09922783 52.21404584 57.1796875 58.33984375 C57.5096875 58.66984375 57.8396875 58.99984375 58.1796875 59.33984375 C60.25641599 67.09629956 61.50783002 75.03650894 62.63671875 82.9765625 C62.76628464 83.88764267 62.89585052 84.79872284 63.02934265 85.7374115 C64.31088107 94.95984157 65.28033363 104.20642113 66.20056152 113.47079468 C68.31453762 134.72138671 70.70268356 155.93561204 73.2121582 177.14282227 C73.79138728 182.04627284 74.35179727 186.95150412 74.8972168 191.85882568 C75.15200984 194.09674323 75.42977391 196.33047731 75.71289062 198.56494141 C75.84115234 199.72429199 75.96941406 200.88364258 76.1015625 202.078125 C76.2159668 203.02341064 76.33037109 203.96869629 76.44824219 204.94262695 C76.1796875 207.33984375 76.1796875 207.33984375 74.34472656 209.67260742 C72.1796875 211.33984375 72.1796875 211.33984375 69.6171875 211.27734375 C66.97941242 210.26281487 65.93398217 209.52263246 64.1796875 207.33984375 C63.59748745 205.12010479 63.59748745 205.12010479 63.30088806 202.47966003 C63.18185623 201.47765564 63.0628244 200.47565125 62.94018555 199.44328308 C62.82320312 198.34462418 62.7062207 197.24596527 62.58569336 196.11401367 C62.38503014 194.37681564 62.38503014 194.37681564 62.18031311 192.60452271 C61.73941355 188.76107562 61.31703702 184.91582142 60.89453125 181.0703125 C60.59242099 178.39498015 60.28625063 175.72011695 59.9801178 173.04524231 C59.25686917 166.70599015 58.54664498 160.36535164 57.84135777 154.02407867 C56.81106364 144.76598008 55.76103415 135.51011698 54.71141148 126.25419331 C54.55544687 124.87855444 54.39949149 123.50291454 54.24354553 122.12727356 C54.16723941 121.45433284 54.09093329 120.78139211 54.01231486 120.08805925 C53.4916235 115.49167799 52.9767102 110.89467223 52.46385193 106.29740906 C51.13879504 81.34107681 51.13879504 81.34107681 43.1796875 58.33984375 C42.60377386 56.80313759 42.04306605 55.26070118 41.4921875 53.71484375 C39.07292878 47.49521693 35.29207514 42.54458435 31.1796875 37.33984375 C30.6846875 36.69015625 30.1896875 36.04046875 29.6796875 35.37109375 C24.45255058 28.8371726 17.68648627 23.76415507 10.5546875 19.46484375 C9.4409375 18.76359375 8.3271875 18.06234375 7.1796875 17.33984375 C7.1796875 16.67984375 7.1796875 16.01984375 7.1796875 15.33984375 C6.18388672 15.04980469 6.18388672 15.04980469 5.16796875 14.75390625 C-3.60238631 12.16761176 -3.60238631 12.16761176 -7.8203125 10.33984375 C-7.8203125 9.67984375 -7.8203125 9.01984375 -7.8203125 8.33984375 C-8.71234375 8.20707031 -9.604375 8.07429688 -10.5234375 7.9375 C-12.27914062 7.67259766 -12.27914062 7.67259766 -14.0703125 7.40234375 C-15.23046875 7.22832031 -16.390625 7.05429687 -17.5859375 6.875 C-20.8203125 6.33984375 -20.8203125 6.33984375 -22.70336914 5.81469727 C-25.16394577 5.26276305 -27.40416821 5.21024379 -29.92578125 5.20703125 C-30.90998047 5.20574219 -31.89417969 5.20445313 -32.90820312 5.203125 C-34.44250977 5.20892578 -34.44250977 5.20892578 -36.0078125 5.21484375 C-37.51311523 5.20904297 -37.51311523 5.20904297 -39.04882812 5.203125 C-47.64954669 5.21431657 -55.06843816 5.3024092 -62.8203125 9.33984375 C-64.16889756 9.61838586 -65.52416677 9.86545761 -66.8828125 10.08984375 C-79.68783539 12.71983162 -91.05726964 21.99259804 -99.8203125 31.33984375 C-98.51530929 35.25485339 -96.12692928 36.38545813 -92.8203125 38.52734375 C-71.31812268 53.02847927 -57.20508364 74.9268231 -51.8203125 100.33984375 C-49.06270681 115.43918118 -49.9204979 131.5749643 -53.8203125 146.33984375 C-54.25433105 148.64914998 -54.66949189 150.96204459 -55.0703125 153.27734375 C-56.64426634 162.01317468 -58.67735088 170.64743934 -60.65792847 179.29788208 C-63.40864979 191.32841176 -65.91412341 203.39561815 -68.24536133 215.51513672 C-68.88976595 218.68106515 -69.59237115 221.83163834 -70.29768372 224.98446655 C-70.94673966 227.90962419 -71.56934628 230.83997277 -72.18968201 233.77133179 C-72.85950892 236.92766276 -73.54186711 240.08125124 -74.22436523 243.23486328 C-74.58212704 244.89808727 -74.93592368 246.56216878 -75.28588867 248.22705078 C-75.79603654 250.64983775 -76.32040141 253.06916755 -76.84765625 255.48828125 C-77.07750465 256.60388931 -77.07750465 256.60388931 -77.31199646 257.74203491 C-78.77530665 264.33449193 -78.77530665 264.33449193 -81.8203125 266.33984375 C-84.8828125 266.71484375 -84.8828125 266.71484375 -87.8203125 266.33984375 C-91.00028966 261.56987801 -90.14745032 256.5302359 -89.08935547 251.11230469 C-88.75564465 249.59769473 -88.41293081 248.08504782 -88.0625 246.57421875 C-87.87909561 245.75196808 -87.69569122 244.92971741 -87.50672913 244.08255005 C-86.91047813 241.41655402 -86.30277339 238.75330547 -85.6953125 236.08984375 C-85.27709658 234.22564267 -84.85986898 232.36121961 -84.44360352 230.49658203 C-83.61644637 226.79355138 -82.78599509 223.09128828 -81.95263672 219.38964844 C-80.5179702 213.00577692 -79.12659983 206.61318509 -77.7578125 200.21484375 C-77.529729 199.15168945 -77.30164551 198.08853516 -77.06665039 196.99316406 C-75.60314962 190.12880489 -74.18421374 183.25583418 -72.78125 176.37890625 C-72.60366653 175.50918182 -72.42608307 174.6394574 -72.24311829 173.74337769 C-71.36535719 169.44159643 -70.49107754 165.13915531 -69.62280273 160.83544922 C-69.2996514 159.24309604 -68.97617252 157.6508093 -68.65234375 156.05859375 C-68.49699661 155.28940109 -68.34164948 154.52020844 -68.18159485 153.72770691 C-67.30803567 149.4704443 -66.28258356 145.3030664 -65.10546875 141.1171875 C-63.34005467 134.2422405 -63.3808826 127.46457673 -63.4453125 120.40234375 C-63.42791016 118.5006543 -63.42791016 118.5006543 -63.41015625 116.56054688 C-63.48101116 93.52089078 -72.7078383 73.64219559 -88.8203125 57.33984375 C-97.65839152 48.05576398 -97.65839152 48.05576398 -108.8359375 43.24609375 C-112.07881358 45.03350576 -113.23224906 48.17475804 -114.7578125 51.40234375 C-115.27504883 52.49470337 -115.27504883 52.49470337 -115.80273438 53.60913086 C-116.83424816 55.842069 -117.82957154 58.08857311 -118.8203125 60.33984375 C-119.62662109 62.0878125 -119.62662109 62.0878125 -120.44921875 63.87109375 C-129.63946841 87.54056866 -123.01002091 117.47168049 -119.96824646 141.93333435 C-118.50457267 153.75725851 -117.20607759 165.59916769 -115.91387939 177.44287109 C-115.51392181 181.09653438 -115.1076869 184.74945948 -114.70068359 188.40234375 C-114.45251672 190.65882309 -114.20461948 192.9153321 -113.95703125 195.171875 C-113.84164505 196.19912186 -113.72625885 197.22636871 -113.6073761 198.28474426 C-113.05922553 203.33824996 -112.69142927 208.25670676 -112.8203125 213.33984375 C-114.6345052 213.05889793 -116.44666251 212.76477942 -118.2578125 212.46484375 C-119.77181641 212.22121094 -119.77181641 212.22121094 -121.31640625 211.97265625 C-122.14269531 211.76382813 -122.96898437 211.555 -123.8203125 211.33984375 C-125.29668786 208.38709303 -125.37425682 205.25962619 -125.72265625 202.015625 C-125.80528214 201.27716843 -125.88790802 200.53871185 -125.97303772 199.77787781 C-126.23822807 197.40308332 -126.49832057 195.02776709 -126.7578125 192.65234375 C-127.09807125 189.56485844 -127.44059646 186.47763324 -127.78515625 183.390625 C-127.87156372 182.6163768 -127.95797119 181.8421286 -128.04699707 181.04441833 C-128.56485776 176.45547301 -129.13237899 171.87709938 -129.75390625 167.30078125 C-142.7158977 71.75620507 -142.7158977 71.75620507 -120.8203125 36.33984375 C-123.48274963 35.64958227 -126.14640958 34.98330219 -128.8203125 34.33984375 C-129.53968994 34.16428955 -130.25906738 33.98873535 -131.00024414 33.80786133 C-147.90022058 30.0413135 -166.79950128 30.53863602 -182.8203125 37.33984375 C-183.43648438 37.59685059 -184.05265625 37.85385742 -184.6875 38.11865234 C-208.16613808 48.20480778 -223.72801542 66.41736368 -233.8203125 89.33984375 C-235.10937615 92.8068352 -236.04692412 95.97186474 -236.3828125 99.65234375 C-236.8203125 103.33984375 -236.8203125 103.33984375 -237.8203125 104.33984375 C-238.14056688 105.99662134 -238.41029763 107.66318569 -238.66015625 109.33203125 C-239.83588462 116.68714384 -241.35148986 123.95231764 -242.90698242 131.234375 C-243.3893003 133.49525553 -243.8657597 135.75732088 -244.34179688 138.01953125 C-244.64809247 139.46231288 -244.95472039 140.905024 -245.26171875 142.34765625 C-245.40339981 143.02152374 -245.54508087 143.69539124 -245.6910553 144.38967896 C-246.70535522 149.10992918 -246.70535522 149.10992918 -247.8203125 151.33984375 C-248.14231587 153.08451658 -248.42800893 154.83595714 -248.6953125 156.58984375 C-250.2412134 166.12668825 -252.27088109 175.47537239 -254.8828125 184.77734375 C-256.23850009 189.73967189 -257.20514155 194.54588045 -257.8203125 199.65234375 C-258.53224529 205.54764682 -259.4901767 211.33698411 -260.6953125 217.15234375 C-260.84484375 217.93585205 -260.994375 218.71936035 -261.1484375 219.52661133 C-262.32168991 224.96191948 -262.32168991 224.96191948 -264.7890625 226.83203125 C-267.29016873 227.45730781 -269.25547884 227.67732186 -271.8203125 227.33984375 C-274.79312869 222.88061946 -274.07585879 219.04789306 -273.30126953 213.87060547 C-273.06263184 212.68225098 -272.82399414 211.49389648 -272.578125 210.26953125 C-272.44969208 209.6254129 -272.32125916 208.98129456 -272.18893433 208.31765747 C-271.91810146 206.96746423 -271.64398227 205.61792633 -271.36669922 204.26904297 C-270.94532033 202.21488191 -270.53637562 200.15852279 -270.12890625 198.1015625 C-269.02927066 192.65217638 -267.89518036 187.50961741 -265.8203125 182.33984375 C-265.47519761 180.64498012 -265.18471164 178.93844842 -264.9375 177.2265625 C-263.69948901 169.33394075 -262.08390837 161.52861298 -260.47119141 153.70581055 C-259.94998124 151.17501338 -259.43374187 148.64323823 -258.91796875 146.11132812 C-257.12995908 137.38370183 -255.26655626 128.68718361 -253.11514282 120.04084778 C-252.03517682 115.61357211 -251.37571333 111.29789488 -250.8828125 106.77734375 C-247.79885042 81.84206062 -234.3137998 58.0884409 -214.9453125 42.15234375 C-195.24708516 27.04428975 -175.73233694 20.19145405 -151.0871582 19.93481445 C-149.54656413 19.91333882 -148.00608858 19.87936039 -146.46606445 19.83227539 C-136.1164816 19.52040056 -128.29329072 20.6378329 -118.86157227 25.04272461 C-115.75814578 26.6013868 -115.75814578 26.6013868 -111.8203125 26.33984375 C-110.25998764 24.92839938 -110.25998764 24.92839938 -108.8828125 22.96484375 C-105.69587041 19.08808735 -102.23362408 16.10481072 -98.2578125 13.08984375 C-97.71584229 12.67814941 -97.17387207 12.26645508 -96.61547852 11.84228516 C-91.58225106 8.07708637 -86.74522762 4.47070175 -80.8203125 2.27734375 C-78.04743835 1.22258033 -75.50784001 0.17363498 -72.8828125 -1.22265625 C-51.75729556 -11.13871522 -20.88842815 -9.10346051 0 0 Z " fill="#3E3561" transform="translate(503.8203125,15.66015625)"></path>
<path d="M0 0 C10.03295599 0.78382469 21.31236397 13.36458652 27.7265625 20.49902344 C41.60538133 36.85772323 47.40283323 56.49518672 47.375 77.5 C47.37478851 78.16362549 47.37457703 78.82725098 47.37435913 79.51098633 C47.34207669 89.68837125 46.38159638 99.00001805 43.60742188 108.78466797 C42.44908922 113.00923008 41.52376842 117.28965057 40.5625 121.5625 C40.35351074 122.47620361 40.14452148 123.38990723 39.92919922 124.33129883 C37.84548071 133.50140863 36.02241964 142.71982161 34.203125 151.9453125 C32.55024723 160.31400915 30.7798556 168.65754834 29 177 C21.83363165 176.67791603 14.93979345 175.48055653 7.9375 174 C7.0921167 173.82178711 6.2467334 173.64357422 5.37573242 173.45996094 C-0.7236651 172.13816745 -0.7236651 172.13816745 -3 171 C-3.46048368 168.63461949 -3.78438077 166.35531656 -4.04296875 163.96484375 C-4.13220612 163.20851654 -4.22144348 162.45218933 -4.31338501 161.67294312 C-4.61456367 159.09549119 -4.90152772 156.51668089 -5.1875 153.9375 C-5.39694264 152.09329343 -5.60683521 150.24913791 -5.81713867 148.4050293 C-6.28674208 144.27092656 -6.74946596 140.13610284 -7.20996094 136.00097656 C-7.83661565 130.40426034 -8.49040892 124.81108216 -9.15416622 119.21865368 C-9.8122522 113.66907349 -10.45631142 108.11796093 -11.09198856 102.56577015 C-11.4842579 99.14289512 -11.88169845 95.72084135 -12.29354858 92.30026245 C-14.0545907 77.55277602 -15.29933868 62.95076698 -15.32421875 48.1015625 C-15.32895706 46.81884964 -15.33369537 45.53613678 -15.33857727 44.21455383 C-15.2570463 34.64816009 -14.06537033 26.7614067 -10 18 C-9.67338379 17.28730957 -9.34676758 16.57461914 -9.01025391 15.84033203 C-3.1172625 3.1172625 -3.1172625 3.1172625 0 0 Z " fill="#FDFDFD" transform="translate(394,58)"></path>
<path d="M0 0 C0.33 0 0.66 0 1 0 C1 124.08 1 248.16 1 376 C-28 380 -28 380 -37 380 C-35.41944239 356.90997126 -33.08268143 333.89887468 -30.78184628 310.87192726 C-30.21332505 305.17545242 -29.64822977 299.47863762 -29.08274841 293.78186035 C-28.11905694 284.07772372 -27.15341152 274.3737833 -26.18634033 264.66998291 C-24.68300566 249.58480197 -23.18363001 234.49922899 -21.68505859 219.41357422 C-21.18500683 214.38003448 -20.68494099 209.34649614 -20.18487549 204.31295776 C-20.0614893 203.07093365 -19.9381031 201.82890954 -19.81097794 200.54924834 C-18.94151936 191.79753086 -18.07153517 183.04586573 -17.20135498 174.29421997 C-13.29150707 134.96881632 -9.40420568 95.64122851 -5.53671646 56.31163788 C-5.12473186 52.12207317 -4.71257407 47.93252551 -4.30038452 43.74298096 C-2.86587707 29.16209004 -1.43221511 14.58111627 0 0 Z " fill="#BC4E4D" transform="translate(508,272)"></path>
<path d="M0 0 C1.4215373 2.8430746 0.59730892 4.42751736 -0.14453125 7.49609375 C-0.40943359 8.61306641 -0.67433594 9.73003906 -0.94726562 10.88085938 C-1.23279297 12.05455078 -1.51832031 13.22824219 -1.8125 14.4375 C-3.77444986 22.59459505 -5.60426511 30.72506164 -7 39 C-14.16856451 38.60549794 -21.04858455 37.48301388 -28.0625 36 C-28.9078833 35.82178711 -29.7532666 35.64357422 -30.62426758 35.45996094 C-36.7236651 34.13816745 -36.7236651 34.13816745 -39 33 C-39.50244141 30.74682617 -39.50244141 30.74682617 -39.8515625 27.79296875 C-39.98046875 26.73142578 -40.109375 25.66988281 -40.2421875 24.57617188 C-40.36851562 23.45791016 -40.49484375 22.33964844 -40.625 21.1875 C-40.7590625 20.08083984 -40.893125 18.97417969 -41.03125 17.83398438 C-41.54321457 13.51624235 -42 9.35299506 -42 5 C-21.21 2.525 -21.21 2.525 0 0 Z " fill="#EADCDF" transform="translate(430,196)"></path>
<path d="M0 0 C0.33 0 0.66 0 1 0 C2.1741788 9.03698325 3.28994872 17.86661545 3 27 C-6.03943131 25.8129357 -14.91415719 24.2900559 -23.8125 22.3125 C-26.23035989 21.78465735 -28.64833404 21.25733791 -31.06640625 20.73046875 C-32.33629395 20.45251465 -33.60618164 20.17456055 -34.91455078 19.88818359 C-41.60497716 18.42900684 -48.30554724 17.01709511 -55.00497437 15.59994507 C-57.23234502 15.12873499 -59.45957965 14.65688736 -61.68676758 14.18481445 C-65.12443367 13.4561742 -68.56218845 12.72795367 -72 12 C-72 11.67 -72 11.34 -72 11 C-70.77796875 10.91363281 -69.5559375 10.82726562 -68.296875 10.73828125 C-51.74094226 9.49083123 -35.27184125 7.60788971 -18.78417969 5.67700195 C-17.83945801 5.56706406 -16.89473633 5.45712616 -15.92138672 5.34385681 C-14.13012062 5.13510838 -12.33909031 4.92432345 -10.54833984 4.7111969 C-9.74444824 4.61749313 -8.94055664 4.52378937 -8.11230469 4.42724609 C-7.41192078 4.34445404 -6.71153687 4.26166199 -5.9899292 4.17636108 C-4.0002199 4.00001949 -1.99750831 4 0 4 C0 2.68 0 1.36 0 0 Z " fill="#EBDCDE" transform="translate(376,199)"></path>
<path d="M0 0 C0.66 0.33 1.32 0.66 2 1 C-1.96 4.96 -5.92 8.92 -10 13 C-10.66 12.67 -11.32 12.34 -12 12 C-8.39424999 7.41086363 -4.52615993 3.67832017 0 0 Z " fill="#625B7F" transform="translate(291,56)"></path>
</svg><style>@media (prefers-color-scheme: light) { :root { filter: none; } }
@media (prefers-color-scheme: dark) { :root { filter: none; } }
</style></svg>